<svg width="232" height="29" viewBox="0 0 232 29" fill="none" xmlns="http://www.w3.org/2000/svg">
<path d="M4.15307 23.2317C5.62632 23.6904 7.1597 23.9197 8.75322 23.9197C10.6173 23.9197 12.2109 23.6022 13.5338 22.9671C14.8417 22.2792 15.7888 21.3796 16.4652 20.2682C17.1267 19.1393 17.4574 17.8869 17.4574 16.5109C17.4574 14.9234 17.0966 13.6533 16.375 12.7007C15.6535 11.8011 14.7966 11.1131 13.8044 10.6898C12.8422 10.2664 11.6095 9.8607 10.1062 9.47263C8.75322 9.15511 7.80613 8.83759 7.21984 8.52007C6.63354 8.20255 6.31785 7.7792 6.31785 7.14416C6.31785 6.5444 6.57341 6.05049 7.08454 5.66241C7.58063 5.23905 8.39243 5.08029 9.51991 5.08029C11.2337 5.08029 13.0377 5.66241 14.9319 6.82664L16.6456 2.01095C15.6986 1.37591 14.5711 0.846715 13.3534 0.529197C12.0906 0.211679 10.8278 0 9.51991 0C7.62573 0 6.03221 0.335158 4.73936 1.00547C3.43147 1.64051 2.48438 2.59307 1.80789 3.70438C1.13139 4.81569 0.860797 6.08577 0.860797 7.46168C0.860797 9.10219 1.17649 10.3723 1.89809 11.2719C2.58961 12.2245 3.44651 12.9124 4.46876 13.3358C5.43089 13.7591 6.66361 14.1648 8.16693 14.5529C9.51991 14.8704 10.467 15.2409 11.0533 15.5584C11.6847 15.8759 12.0004 16.3522 12.0004 16.9872C12.0004 18.2573 10.933 18.8923 8.79832 18.8923C7.67083 18.8923 6.54334 18.6807 5.37075 18.2573C4.19817 17.8339 3.20597 17.3047 2.34908 16.6168L0.5 21.3796C1.44709 22.1734 2.61968 22.7555 4.15307 23.2317Z" fill="#3B368D"/>
<path d="M35.5424 0.476562H30.0854L21.4263 23.4437H27.0637L28.5971 18.9985L30.2207 14.1828L32.7463 6.82693L35.2718 14.1828L36.8954 18.9985L38.4288 23.4437H44.2016L35.5424 0.476562Z" fill="#3B368D"/>
<path d="M49.5684 0.476562V23.4437H64.4963V18.3105H55.1156V0.476562H49.5684Z" fill="#3B368D"/>
<path d="M86.0088 0.476562H70.4495V5.50393H86.0088V0.476562ZM86.0088 9.36707H70.4495V14.2357H86.0088V9.36707ZM70.4495 18.4163V23.4437H86.0088V18.4163H70.4495Z" fill="#3B368D"/>
<path d="M95.3444 23.2317C96.8477 23.6904 98.3962 23.9197 99.9897 23.9197C101.854 23.9197 103.432 23.6022 104.725 22.9671C106.033 22.2792 107.025 21.3796 107.702 20.2682C108.333 19.1393 108.649 17.8869 108.649 16.5109C108.649 14.9234 108.288 13.6533 107.566 12.7007C106.845 11.8011 105.988 11.1131 105.041 10.6898C104.049 10.2664 102.816 9.8607 101.343 9.47263C99.9897 9.15511 99.0426 8.83759 98.4563 8.52007C97.8249 8.20255 97.5543 7.7792 97.5543 7.14416C97.5543 6.5444 97.8099 6.05049 98.321 5.66241C98.8171 5.23905 99.5838 5.08029 100.711 5.08029C102.455 5.08029 104.259 5.66241 106.123 6.82664L107.837 2.01095C106.89 1.37591 105.762 0.846715 104.545 0.529197C103.282 0.211679 102.019 0 100.756 0C98.8321 0 97.2236 0.335158 95.9307 1.00547C94.6679 1.64051 93.6757 2.59307 93.0443 3.70438C92.3678 4.81569 92.0521 6.08577 92.0521 7.46168C92.0521 9.10219 92.4129 10.3723 93.1345 11.2719C93.8261 12.2245 94.6679 12.9124 95.6601 13.3358C96.6523 13.7591 97.885 14.1648 99.3583 14.5529C100.711 14.8704 101.658 15.2409 102.29 15.5584C102.876 15.8759 103.192 16.3522 103.192 16.9872C103.192 18.2573 102.124 18.8923 99.9897 18.8923C98.9073 18.8923 97.7347 18.6807 96.6072 18.2573C95.4346 17.8339 94.3973 17.3047 93.5404 16.6168L91.7365 21.3796C92.6384 22.1734 93.8561 22.7555 95.3444 23.2317Z" fill="#3B368D"/>
<path d="M137.738 9.26123L132.642 19.8981L132.687 23.4437H137.783L137.738 9.26123ZM115.008 23.4966H120.149V20.3215L115.008 9.57875V23.4966ZM133.183 0.476562L126.463 13.7594L119.563 0.476562H115.008L120.149 11.6426L125.155 21.2211H127.591L132.642 11.3251L137.603 0.476562H133.183Z" fill="#3B368D"/>
<path d="M157.221 0.476562H151.764L143.105 23.4437H148.742L150.276 18.9985L151.899 14.1828L154.425 6.82693L156.95 14.1828L158.574 18.9985L160.107 23.4437H165.88L157.221 0.476562Z" fill="#3B368D"/>
<path d="M184.145 11.4836V17.781C183.153 18.3102 182.206 18.5219 181.124 18.5219C180.041 18.5219 179.094 18.2573 178.237 17.7281C177.426 17.146 176.749 16.3522 176.298 15.3996C175.802 14.3942 175.576 13.2299 175.576 11.9599C175.576 10.0018 176.073 8.36131 177.11 7.19708C178.147 6.03285 179.5 5.39781 181.169 5.39781C183.018 5.39781 184.596 6.24452 185.949 7.93796L189.467 4.23358C188.475 2.85766 187.302 1.79927 185.814 1.11131C184.371 0.370438 182.732 0 180.898 0C178.794 0 176.914 0.511557 175.261 1.53467C173.607 2.55779 172.314 3.96898 171.382 5.76825C170.435 7.62044 169.984 9.68431 169.984 11.9599C169.984 14.2883 170.435 16.3522 171.382 18.1515C172.314 19.986 173.607 21.4148 175.261 22.438C176.884 23.4258 178.733 23.9197 180.808 23.9197C182.251 23.9197 183.694 23.708 185.183 23.1788C186.626 22.6849 187.904 21.9617 189.016 21.0091V11.4836H184.145Z" fill="#3B368D"/>
<path d="M196.367 0.476562V23.4437H201.915V0.476562H196.367Z" fill="#3B368D"/>
<path fill-rule="evenodd" clip-rule="evenodd" d="M229.065 28.312C228.118 28.7883 227.125 29 225.998 29C224.916 29 223.938 28.8412 223.066 28.5237C222.164 28.2062 221.308 27.677 220.406 26.9361C219.504 26.1423 218.511 25.0839 217.429 23.708C215.715 23.3905 214.182 22.7026 212.874 21.5912C211.551 20.4976 210.514 19.1217 209.762 17.4635C209.04 15.8054 208.68 13.9708 208.68 11.9599C208.68 9.68431 209.131 7.67336 210.078 5.82117C211.025 4.0219 212.333 2.59307 213.956 1.53467C215.625 0.529197 217.519 0 219.594 0C221.668 0 223.517 0.529197 225.141 1.53467C226.81 2.59307 228.073 4.0219 229.065 5.82117C229.997 7.65572 230.463 9.70195 230.463 11.9599C230.463 14.5529 229.876 16.8814 228.659 18.8394C227.456 20.8151 225.833 22.2263 223.788 23.073C224.179 23.5669 224.555 23.9021 224.916 24.0785C225.276 24.2901 225.667 24.396 226.088 24.396C227.216 24.396 228.163 23.8668 229.065 22.7555L231.5 26.1423C230.824 27.0949 230.012 27.7828 229.065 28.312ZM216.888 17.7281C217.67 18.2573 218.572 18.5219 219.594 18.5219C220.556 18.5219 221.443 18.2573 222.255 17.7281C223.066 17.1989 223.698 16.4051 224.194 15.3996C224.6 14.4471 224.87 13.2828 224.87 11.9599C224.87 10.6898 224.6 9.52555 224.194 8.52007C223.698 7.56752 223.066 6.77372 222.255 6.19161C221.443 5.66241 220.541 5.39781 219.594 5.39781C218.556 5.39781 217.7 5.66241 216.888 6.19161C216.076 6.77372 215.445 7.56752 214.994 8.52007C214.498 9.52555 214.272 10.6898 214.272 11.9599C214.272 13.2652 214.513 14.4118 214.994 15.3996C215.445 16.4051 216.076 17.1989 216.888 17.7281Z" fill="#3B368D"/>
</svg>
